<svg width="12" height="6" viewBox="0 0 12 6" fill="none" xmlns="http://www.w3.org/2000/svg">
<path d="M0.858315 1.41015e-06C1.05851 -0.000389579 1.25252 0.0692859 1.40667 0.196933L5.99916 4.03283L10.6002 0.333931C10.6879 0.262808 10.7887 0.209694 10.8969 0.177645C11.0052 0.145595 11.1187 0.13524 11.231 0.147174C11.3432 0.15911 11.452 0.193099 11.5511 0.24719C11.6502 0.301281 11.7376 0.374407 11.8083 0.462365C11.8795 0.549946 11.9326 0.650721 11.9647 0.758896C11.9968 0.867071 12.0071 0.980514 11.9952 1.0927C11.9832 1.20489 11.9492 1.31362 11.8951 1.41263C11.841 1.51164 11.7678 1.59899 11.6798 1.66964L6.53895 5.80522C6.38563 5.93115 6.19333 6 5.99487 6C5.79642 6 5.60411 5.93115 5.4508 5.80522L0.309959 1.52408C0.223199 1.45221 0.151483 1.36393 0.0989155 1.26431C0.046349 1.16469 0.0139641 1.05568 0.00361773 0.943539C-0.00672963 0.831393 0.00516556 0.718309 0.0386195 0.610764C0.0720725 0.503219 0.126428 0.403325 0.198573 0.316805C0.278302 0.218584 0.378815 0.139234 0.492888 0.0844573C0.60696 0.0296807 0.731759 0.000837771 0.858315 1.41015e-06Z" fill="#CCCCCC"/>
</svg>
