<svg width="20" height="25" viewBox="0 0 20 25" fill="none" xmlns="http://www.w3.org/2000/svg">
<path d="M1 15.8178H1.75H1ZM4.14282 19.4958L4.24584 18.7529H4.24584L4.14282 19.4958ZM15.857 19.4958L15.96 20.2387L15.857 19.4958ZM3.75002 7.99994C3.75002 4.54819 6.54822 1.75 9.99997 1.75V0.25C5.71979 0.25 2.25002 3.71976 2.25002 7.99994H3.75002ZM3.75002 10.6741V7.99994H2.25002V10.6741H3.75002ZM1.75 15.8178C1.75 15.1664 1.95219 14.5645 2.29724 14.0685L1.0659 13.2119C0.5516 13.9511 0.25 14.8504 0.25 15.8178H1.75ZM4.24584 18.7529C2.80806 18.5535 1.75 17.3043 1.75 15.8178H0.25C0.25 18.0179 1.82588 19.9317 4.03981 20.2387L4.24584 18.7529ZM9.99993 19.2501C8.27601 19.2501 6.05292 19.0035 4.24584 18.7529L4.03981 20.2387C5.85908 20.491 8.16728 20.7501 9.99993 20.7501V19.2501ZM15.754 18.7529C13.9469 19.0035 11.7239 19.2501 9.99993 19.2501V20.7501C11.8326 20.7501 14.1408 20.491 15.96 20.2387L15.754 18.7529ZM18.2499 15.8178C18.2499 17.3043 17.1918 18.5535 15.754 18.7529L15.96 20.2387C18.174 19.9317 19.7499 18.0179 19.7499 15.8178H18.2499ZM17.7026 14.0685C18.0477 14.5645 18.2499 15.1664 18.2499 15.8178H19.7499C19.7499 14.8504 19.4483 13.9512 18.934 13.2119L17.7026 14.0685ZM16.2499 7.99994V10.6742H17.7499V7.99994H16.2499ZM9.99997 1.75C13.4517 1.75 16.2499 4.5482 16.2499 7.99994H17.7499C17.7499 3.71977 14.2801 0.25 9.99997 0.25V1.75ZM18.934 13.2119C18.2655 12.2509 17.7499 11.4929 17.7499 10.6742H16.2499C16.2499 12.0562 17.1144 13.2229 17.7026 14.0685L18.934 13.2119ZM2.25002 10.6741C2.25002 11.4928 1.73443 12.2509 1.0659 13.2119L2.29724 14.0685C2.88549 13.2229 3.75002 12.0562 3.75002 10.6741H2.25002Z" fill="#ED1C24"/>
<path d="M12.5 22.6589C11.9625 23.4673 11.0435 24 10 24C8.95655 24 8.0375 23.4673 7.50005 22.6589" stroke="#ED1C24" stroke-width="1.5" stroke-linecap="round"/>
</svg>
