<svg width="85" height="38" viewBox="0 0 85 38" fill="none" xmlns="http://www.w3.org/2000/svg">
<path d="M7.20998 33.4C7.20998 34.12 7.19998 34.68 7.16998 35.07C7.13998 35.45 7.07998 35.73 6.99998 35.92C6.91998 36.08 6.80998 36.16 6.64998 36.16C6.56998 36.16 6.48998 36.15 6.42998 36.12L6.28998 36.07V36.9L6.36998 36.92C6.50998 36.96 6.64998 36.97 6.79998 36.97C7.10998 36.97 7.35998 36.86 7.53998 36.66C7.71998 36.46 7.84998 36.2 7.91998 35.89C7.99998 35.59 8.03998 35.26 8.05998 34.93C8.07998 34.6 8.08998 34.21 8.08998 33.76V31.48H9.89998V36.9H10.78V30.67H7.20998V33.41V33.4Z" fill="white"/>
<path d="M18.59 30.5601C18.02 30.5601 17.57 30.7301 17.26 31.0501C16.95 31.3701 16.75 31.7701 16.65 32.2401C16.55 32.7001 16.5 33.2101 16.5 33.7801C16.5 34.2501 16.52 34.6801 16.57 35.0501C16.62 35.4201 16.72 35.7601 16.86 36.0601C17.01 36.3701 17.22 36.6101 17.5 36.7901C17.78 36.9601 18.15 37.0501 18.58 37.0501C19.42 37.0501 19.98 36.7501 20.27 36.1601C20.54 35.5901 20.68 34.8001 20.68 33.7901C20.68 32.8801 20.54 32.1201 20.27 31.5201C19.98 30.8901 19.42 30.5701 18.59 30.5701V30.5601ZM19.2 36.0801C19.05 36.1801 18.84 36.2301 18.59 36.2301C18.34 36.2301 18.14 36.1801 17.99 36.0801C17.84 35.9801 17.72 35.8301 17.64 35.6301C17.55 35.4201 17.49 35.1601 17.46 34.8501C17.43 34.5301 17.41 34.1401 17.41 33.6701C17.41 33.2001 17.45 32.7801 17.52 32.4301C17.59 32.1001 17.71 31.8301 17.89 31.6401C18.06 31.4601 18.28 31.3701 18.58 31.3701C18.81 31.3701 19.01 31.4201 19.16 31.5301C19.32 31.6401 19.44 31.8001 19.53 31.9901C19.62 32.2001 19.69 32.4401 19.73 32.7101C19.77 32.9901 19.79 33.3101 19.79 33.6701C19.79 34.1301 19.77 34.5301 19.74 34.8401C19.71 35.1501 19.65 35.4101 19.56 35.6201C19.48 35.8201 19.36 35.9701 19.21 36.0701L19.2 36.0801Z" fill="white"/>
<path d="M26.41 36.9H27.29V31.49H29.75V30.67H26.41V36.9Z" fill="white"/>
<path d="M36.03 35.5001C36.03 35.5001 36.01 35.5601 35.99 35.6001V30.6801H35.11V36.9101H36.26L38.17 32.1101C38.17 32.1101 38.19 32.0601 38.2 32.0301V36.9101H39.08V30.6801H37.93L36.03 35.5001Z" fill="white"/>
<path d="M47.66 34.6201C47.63 34.9901 47.59 35.3001 47.53 35.5301C47.48 35.7501 47.38 35.9201 47.25 36.0501C47.12 36.1701 46.93 36.2301 46.69 36.2301C46.46 36.2301 46.27 36.1601 46.13 36.0301C45.98 35.8901 45.87 35.7001 45.8 35.4701C45.73 35.2301 45.68 34.9601 45.66 34.6901C45.64 34.4101 45.63 34.0701 45.63 33.7001C45.63 33.0501 45.7 32.4801 45.83 32.0101C45.95 31.5801 46.24 31.3701 46.69 31.3701C47.34 31.3701 47.66 31.7701 47.66 32.5901V32.7001H48.54V32.5901C48.54 32.2101 48.47 31.8601 48.34 31.5601C48.2 31.2501 47.99 31.0101 47.72 30.8301C47.45 30.6501 47.11 30.5601 46.73 30.5601C46.19 30.5601 45.77 30.7201 45.47 31.0401C45.18 31.3501 44.98 31.7501 44.88 32.2101C44.78 32.6701 44.73 33.1701 44.73 33.7101C44.73 34.1401 44.75 34.5401 44.79 34.9001C44.83 35.2701 44.92 35.6101 45.05 35.9301C45.18 36.2601 45.39 36.5301 45.67 36.7301C45.95 36.9301 46.31 37.0401 46.75 37.0401C47.19 37.0401 47.53 36.9401 47.79 36.7401C48.05 36.5401 48.23 36.2601 48.35 35.9101C48.46 35.5701 48.53 35.1401 48.55 34.6301V34.5201H47.68V34.6201H47.66Z" fill="white"/>
<path d="M53.69 31.49H55.25V36.9H56.13V31.49H57.68V30.67H53.69V31.49Z" fill="white"/>
<path d="M63.93 35.5001C63.93 35.5001 63.9099 35.5601 63.8899 35.6001V30.6801H63.0099V36.9101H64.16L66.07 32.1101C66.07 32.1101 66.0899 32.0601 66.0999 32.0301V36.9101H66.98V30.6801H65.83L63.93 35.5001Z" fill="white"/>
<path d="M74.8299 33.3L76.8399 30.67H75.7299L73.6999 33.54V30.67H72.8199V36.9H73.6999V34.73L74.2799 34.01L75.8399 36.9H76.8599L74.8299 33.3Z" fill="white"/>
<path d="M35.99 15.99H33.91L36.75 3.29999H37L35.98 15.99H35.99ZM33.31 0.109985L26.67 25.56H31.8L33.34 18.77H35.8L35.33 25.56H40.49L41.64 0.109985H33.3H33.31Z" fill="white"/>
<path d="M46.98 0.109985H57.08L56.66 2.89999H51.85L48.4 25.56H43.11L46.98 0.109985Z" fill="white"/>
<path d="M63.62 15.99H61.54L64.38 3.29999H64.63L63.61 15.99H63.62ZM60.94 0.109985L54.3 25.56H59.43L60.97 18.77H63.42L62.95 25.56H68.11L69.28 0.109985H60.94Z" fill="white"/>
<path d="M75.57 2.89999H72.42L72.85 0.109985H84.43L84 2.89999H80.85L77.41 25.56H72.12L75.57 2.89999Z" fill="white"/>
<path d="M23.03 8.55996C23.73 8.54996 24.42 8.53996 25.12 8.52996C25.65 8.15996 25.45 7.64996 25.78 6.91996C26.1 6.54996 26.52 6.33996 26.99 6.30996C27.25 6.30996 28.04 6.49996 28.22 6.72996H28.65C28.74 6.37996 28.83 6.05996 28.92 5.70996C27.96 5.70996 27.01 5.71996 26.05 5.72996C25.04 6.66996 24.04 7.61996 23.03 8.55996Z" fill="#ED1C24"/>
<path d="M26.32 12.65H23.44C23.37 12.65 23.31 12.71 23.31 12.79V13.25C23.31 13.32 23.37 13.39 23.44 13.39H26.32C26.39 13.39 26.45 13.33 26.45 13.25V12.79C26.45 12.71 26.39 12.65 26.32 12.65Z" fill="#ED1C24"/>
<path d="M14.7 18.88L10.05 18.91L15.55 10.47L14.69 18.88H14.7ZM9.08 0.02L0 34.17L7.14 23.49H14.24L14.03 25.54H23.64L25.65 17.91H24.76L24.55 18.79H20.49L20.42 18.13H19.78C19.03 15.85 18.16 11.42 18.65 11.03L21.47 8.81L21.2 8.22C21.06 8.27 20.87 8.37 20.73 8.42C20.08 8.44 19.59 8.42 18.95 8.44C18.64 8.11 18.54 7.77 18.94 7.46C19.75 7.41 20.41 7.44 21.22 7.46C21.53 7.8 21.83 8.02 22.14 8.36L25.73 5.13L29.1 5.06L30.32 0H9.08V0.02Z" fill="#ED1C24"/>
</svg>
