<svg width="85" height="39" viewBox="0 0 85 39" fill="none" xmlns="http://www.w3.org/2000/svg">
<path d="M7.20998 34.38C7.20998 35.1 7.19998 35.66 7.16998 36.05C7.13998 36.43 7.07998 36.71 6.99998 36.9C6.91998 37.06 6.80998 37.14 6.64998 37.14C6.56998 37.14 6.48998 37.13 6.42998 37.1L6.28998 37.05V37.88L6.36998 37.9C6.50998 37.94 6.64998 37.95 6.79998 37.95C7.10998 37.95 7.35998 37.84 7.53998 37.64C7.71998 37.44 7.84998 37.18 7.91998 36.87C7.99998 36.57 8.03998 36.24 8.05998 35.91C8.07998 35.58 8.08998 35.19 8.08998 34.74V32.46H9.89998V37.88H10.78V31.65H7.20998V34.39V34.38Z" fill="#231F20"/>
<path d="M18.59 31.54C18.02 31.54 17.57 31.71 17.26 32.03C16.95 32.35 16.75 32.75 16.65 33.22C16.55 33.68 16.5 34.19 16.5 34.76C16.5 35.23 16.52 35.66 16.57 36.03C16.62 36.4 16.72 36.74 16.86 37.04C17.01 37.35 17.22 37.59 17.5 37.77C17.78 37.94 18.15 38.03 18.58 38.03C19.42 38.03 19.98 37.73 20.27 37.14C20.54 36.57 20.68 35.78 20.68 34.77C20.68 33.86 20.54 33.1 20.27 32.5C19.98 31.87 19.42 31.55 18.59 31.55V31.54ZM19.2 37.06C19.05 37.16 18.84 37.21 18.59 37.21C18.34 37.21 18.14 37.16 17.99 37.06C17.84 36.96 17.72 36.81 17.64 36.61C17.55 36.4 17.49 36.14 17.46 35.83C17.43 35.51 17.41 35.12 17.41 34.65C17.41 34.18 17.45 33.76 17.52 33.41C17.59 33.08 17.71 32.81 17.89 32.62C18.06 32.44 18.28 32.35 18.58 32.35C18.81 32.35 19.01 32.4 19.16 32.51C19.32 32.62 19.44 32.78 19.53 32.97C19.62 33.18 19.69 33.42 19.73 33.69C19.77 33.97 19.79 34.29 19.79 34.65C19.79 35.11 19.77 35.51 19.74 35.82C19.71 36.13 19.65 36.39 19.56 36.6C19.48 36.8 19.36 36.95 19.21 37.05L19.2 37.06Z" fill="#231F20"/>
<path d="M26.41 37.88H27.29V32.47H29.75V31.65H26.41V37.88Z" fill="#231F20"/>
<path d="M36.03 36.48C36.03 36.48 36.01 36.54 35.99 36.58V31.66H35.11V37.89H36.26L38.17 33.09C38.17 33.09 38.19 33.04 38.2 33.01V37.89H39.08V31.66H37.93L36.03 36.48Z" fill="#231F20"/>
<path d="M47.66 35.6C47.63 35.97 47.59 36.28 47.53 36.51C47.48 36.73 47.38 36.9 47.25 37.03C47.12 37.15 46.93 37.21 46.69 37.21C46.46 37.21 46.27 37.14 46.13 37.01C45.98 36.87 45.87 36.68 45.8 36.45C45.73 36.21 45.68 35.94 45.66 35.67C45.64 35.39 45.63 35.05 45.63 34.68C45.63 34.03 45.7 33.46 45.83 32.99C45.95 32.56 46.24 32.35 46.69 32.35C47.34 32.35 47.66 32.75 47.66 33.57V33.68H48.54V33.57C48.54 33.19 48.47 32.84 48.34 32.54C48.2 32.23 47.99 31.99 47.72 31.81C47.45 31.63 47.11 31.54 46.73 31.54C46.19 31.54 45.77 31.7 45.47 32.02C45.18 32.33 44.98 32.73 44.88 33.19C44.78 33.65 44.73 34.15 44.73 34.69C44.73 35.12 44.75 35.52 44.79 35.88C44.83 36.25 44.92 36.59 45.05 36.91C45.18 37.24 45.39 37.51 45.67 37.71C45.95 37.91 46.31 38.02 46.75 38.02C47.19 38.02 47.53 37.92 47.79 37.72C48.05 37.52 48.23 37.24 48.35 36.89C48.46 36.55 48.53 36.12 48.55 35.61V35.5H47.68V35.6H47.66Z" fill="#231F20"/>
<path d="M53.69 32.47H55.25V37.88H56.13V32.47H57.68V31.65H53.69V32.47Z" fill="#231F20"/>
<path d="M63.93 36.48C63.93 36.48 63.9099 36.54 63.8899 36.58V31.66H63.0099V37.89H64.16L66.07 33.09C66.07 33.09 66.0899 33.04 66.0999 33.01V37.89H66.98V31.66H65.83L63.93 36.48Z" fill="#231F20"/>
<path d="M74.8299 34.28L76.8399 31.65H75.7299L73.6999 34.52V31.65H72.8199V37.88H73.6999V35.71L74.2799 34.99L75.8399 37.88H76.8599L74.8299 34.28Z" fill="#231F20"/>
<path d="M35.99 16.97H33.91L36.75 4.27997H37L35.98 16.97H35.99ZM33.31 1.08997L26.67 26.54H31.8L33.34 19.75H35.8L35.33 26.54H40.49L41.64 1.08997H33.3H33.31Z" fill="#231F20"/>
<path d="M46.98 1.08997H57.08L56.66 3.87997H51.85L48.4 26.54H43.11L46.98 1.08997Z" fill="#231F20"/>
<path d="M63.62 16.97H61.54L64.38 4.27997H64.63L63.61 16.97H63.62ZM60.94 1.08997L54.3 26.54H59.43L60.97 19.75H63.42L62.95 26.54H68.11L69.28 1.08997H60.94Z" fill="#231F20"/>
<path d="M75.57 3.87997H72.42L72.85 1.08997H84.43L84 3.87997H80.85L77.41 26.54H72.12L75.57 3.87997Z" fill="#231F20"/>
<path d="M23.03 9.53994C23.73 9.52994 24.42 9.51994 25.12 9.50994C25.65 9.13994 25.45 8.62994 25.78 7.89994C26.1 7.52994 26.52 7.31994 26.99 7.28994C27.25 7.28994 28.04 7.47994 28.22 7.70994H28.65C28.74 7.35994 28.83 7.03994 28.92 6.68994C27.96 6.68994 27.01 6.69994 26.05 6.70994C25.04 7.64994 24.04 8.59994 23.03 9.53994Z" fill="#ED1C24"/>
<path d="M26.32 13.63H23.44C23.37 13.63 23.31 13.69 23.31 13.77V14.23C23.31 14.3 23.37 14.37 23.44 14.37H26.32C26.39 14.37 26.45 14.31 26.45 14.23V13.77C26.45 13.69 26.39 13.63 26.32 13.63Z" fill="#ED1C24"/>
<path d="M14.7 19.86L10.05 19.89L15.55 11.45L14.69 19.86H14.7ZM9.08 0.99998L0 35.15L7.14 24.47H14.24L14.03 26.52H23.64L25.65 18.89H24.76L24.55 19.77H20.49L20.42 19.11H19.78C19.03 16.83 18.16 12.4 18.65 12.01L21.47 9.78998L21.2 9.19998C21.06 9.24998 20.87 9.34998 20.73 9.39998C20.08 9.41998 19.59 9.39998 18.95 9.41998C18.64 9.08998 18.54 8.74998 18.94 8.43998C19.75 8.38998 20.41 8.41998 21.22 8.43998C21.53 8.77998 21.83 8.99998 22.14 9.33998L25.73 6.10998L29.1 6.03998L30.32 0.97998H9.08V0.99998Z" fill="#ED1C24"/>
</svg>
