<svg fill="none" xmlns="http://www.w3.org/2000/svg">
  <symbol id="login-user" viewBox="0 0 20 23" fill="none">
    <circle r="4.91429" transform="matrix(-1 0 0 1 10 5.91429)" stroke="#ED1C24" stroke-width="1.5"/>
    <path
      d="M1.40002 18.1197C1.40002 17.0627 2.0645 16.1198 3.05994 15.7643V15.7643C7.54785 14.1615 12.4522 14.1615 16.9401 15.7643V15.7643C17.9355 16.1198 18.6 17.0627 18.6 18.1197V20.194C18.6 21.4111 17.522 22.346 16.3172 22.1739L13.8184 21.8169C11.2857 21.4551 8.71438 21.4551 6.18165 21.8169L3.68287 22.1739C2.478 22.346 1.40002 21.4111 1.40002 20.194V18.1197Z"
      stroke="#ED1C24" stroke-width="1.5"/>
  </symbol>
  <symbol id="paper-clip" viewBox="0 0 16 16" fill="none">
    <path
      d="M12.9777 7.8995L7.61733 13.2599C6.21501 14.6622 3.9414 14.6622 2.53908 13.2599V13.2599C1.13676 11.8575 1.13676 9.58394 2.53908 8.18162L9.02795 1.69275C9.96283 0.757871 11.4786 0.75787 12.4135 1.69275V1.69275C13.3483 2.62763 13.3483 4.14337 12.4135 5.07825L5.84397 11.6477C5.37653 12.1152 4.61867 12.1152 4.15123 11.6477V11.6477C3.68379 11.1803 3.68379 10.4224 4.15123 9.95498L9.5922 4.514"
      stroke="#ED1C24" stroke-linecap="round"/>
  </symbol>
</svg>
