<svg fill="none" xmlns="http://www.w3.org/2000/svg">
  <symbol id="login-user" viewBox="0 0 20 23" fill="none">
    <circle r="4.91429" transform="matrix(-1 0 0 1 10 5.91429)" stroke="#ED1C24" stroke-width="1.5"/>
    <path
      d="M1.40002 18.1197C1.40002 17.0627 2.0645 16.1198 3.05994 15.7643V15.7643C7.54785 14.1615 12.4522 14.1615 16.9401 15.7643V15.7643C17.9355 16.1198 18.6 17.0627 18.6 18.1197V20.194C18.6 21.4111 17.522 22.346 16.3172 22.1739L13.8184 21.8169C11.2857 21.4551 8.71438 21.4551 6.18165 21.8169L3.68287 22.1739C2.478 22.346 1.40002 21.4111 1.40002 20.194V18.1197Z"
      stroke="#ED1C24" stroke-width="1.5"/>
  </symbol>
  <symbol id="paper-clip" viewBox="0 0 16 16" fill="none">
    <path
      d="M12.9777 7.8995L7.61733 13.2599C6.21501 14.6622 3.9414 14.6622 2.53908 13.2599V13.2599C1.13676 11.8575 1.13676 9.58394 2.53908 8.18162L9.02795 1.69275C9.96283 0.757871 11.4786 0.75787 12.4135 1.69275V1.69275C13.3483 2.62763 13.3483 4.14337 12.4135 5.07825L5.84397 11.6477C5.37653 12.1152 4.61867 12.1152 4.15123 11.6477V11.6477C3.68379 11.1803 3.68379 10.4224 4.15123 9.95498L9.5922 4.514"
      stroke="#ED1C24" stroke-linecap="round"/>
  </symbol>
  <symbol id="eye-show" viewBox="0 0 64 64"  style="fill-rule:evenodd;clip-rule:evenodd;stroke-linejoin:round;stroke-miterlimit:2;">
    <path d="M32.513,13.926c10.574,0.15 19.249,9.657 23.594,17.837c0,0 -1.529,3.129 -2.963,5.132c-0.694,0.969 -1.424,1.913 -2.191,2.826c-0.547,0.65 -1.112,1.283 -1.698,1.898c-5.237,5.5 -12.758,9.603 -20.7,8.01c-8.823,-1.77 -16.02,-9.33 -20.346,-17.461c0,0 1.536,-3.132 2.978,-5.132c0.646,-0.897 1.324,-1.77 2.034,-2.617c0.544,-0.649 1.108,-1.282 1.691,-1.897c4.627,-4.876 10.564,-8.63 17.601,-8.596Zm-0.037,4c-5.89,-0.022 -10.788,3.267 -14.663,7.35c-0.527,0.555 -1.035,1.127 -1.527,1.713c-0.647,0.772 -1.265,1.569 -1.854,2.386c-0.589,0.816 -1.193,1.846 -1.672,2.721c3.814,6.409 9.539,12.198 16.582,13.611c6.563,1.317 12.688,-2.301 17.016,-6.846c0.529,-0.555 1.04,-1.128 1.534,-1.715c0.7,-0.833 1.366,-1.694 1.999,-2.579c0.586,-0.819 1.189,-1.851 1.667,-2.727c-3.958,-6.625 -10.73,-13.784 -19.082,-13.914Z"/>
    <path
      d="M32.158,23.948c4.425,0 8.018,3.593 8.018,8.017c0,4.425 -3.593,8.017 -8.018,8.017c-4.424,0 -8.017,-3.592 -8.017,-8.017c0,-4.424 3.593,-8.017 8.017,-8.017Zm0,4.009c2.213,0 4.009,1.796 4.009,4.008c0,2.213 -1.796,4.009 -4.009,4.009c-2.212,0 -4.008,-1.796 -4.008,-4.009c0,-2.212 1.796,-4.008 4.008,-4.008Z"/>
  </symbol>
  <symbol id="eye-hide" viewBox="0 0 64 64"  style="fill-rule:evenodd;clip-rule:evenodd;stroke-linejoin:round;stroke-miterlimit:2;">
    <path d="M13.673,10.345l-3.097,3.096l39.853,39.854l3.097,-3.097l-39.853,-39.853Z"/>
    <path
      d="M17.119,19.984l2.915,2.915c-3.191,2.717 -5.732,6.099 -7.374,9.058l-0.005,0.01c4.573,7.646 11.829,14.872 20.987,13.776c2.472,-0.296 4.778,-1.141 6.885,-2.35l2.951,2.95c-4.107,2.636 -8.815,4.032 -13.916,3.342c-9.198,-1.244 -16.719,-8.788 -21.46,-17.648c2.226,-4.479 5.271,-8.764 9.017,-12.053Zm6.63,-4.32c2.572,-1.146 5.355,-1.82 8.327,-1.868c0.165,-0.001 2.124,0.092 3.012,0.238c0.557,0.092 1.112,0.207 1.659,0.35c8.725,2.273 15.189,9.649 19.253,17.248c-1.705,3.443 -3.938,6.803 -6.601,9.682l-2.827,-2.827c1.967,-2.12 3.607,-4.48 4.87,-6.769c0,0 -1.27,-2.042 -2.233,-3.324c-0.619,-0.824 -1.27,-1.624 -1.954,-2.395c-0.54,-0.608 -2.637,-2.673 -3.136,-3.103c-3.348,-2.879 -7.279,-5.138 -11.994,-5.1c-1.826,0.029 -3.582,0.389 -5.249,0.995l-3.127,-3.127Z"
      style="fill-rule:nonzero;"/>
    <path
      d="M25.054,27.92l2.399,2.398c-0.157,0.477 -0.243,0.987 -0.243,1.516c0,2.672 2.169,4.841 4.841,4.841c0.529,0 1.039,-0.085 1.516,-0.243l2.399,2.399c-1.158,0.65 -2.494,1.02 -3.915,1.02c-4.425,0 -8.017,-3.592 -8.017,-8.017c0,-1.421 0.371,-2.756 1.02,-3.914Zm6.849,-4.101c0.049,-0.001 0.099,-0.002 0.148,-0.002c4.425,0 8.017,3.593 8.017,8.017c0,0.05 0,0.099 -0.001,0.148l-8.164,-8.163Z"/>
  </symbol>
  <symbol id="sort-up" viewBox="0 0 10 15">
    <path d="M1.54785 4.0941L4.38922 1.25273C4.7262 0.915756 5.27255 0.915756 5.60952 1.25273L8.45089 4.0941M4.99937 1.50547L4.99937 13.5858" stroke="black" stroke-width="1.5" stroke-linecap="round"/>
  </symbol>
  <symbol id="arrow-right" viewBox="0 0 14 11">
    <path d="M0.875 6.28515H11.2525L8.07625 9.71056C8.00271 9.79 7.94732 9.88167 7.91323 9.98034C7.87915 10.079 7.86704 10.1827 7.87761 10.2856C7.89894 10.4933 8.01131 10.685 8.19 10.8183C8.36869 10.9517 8.59906 11.0158 8.83043 10.9967C9.06181 10.9775 9.27523 10.8766 9.42375 10.7162L13.7988 6.00232C13.8282 5.96483 13.8545 5.92544 13.8775 5.88447C13.8775 5.84519 13.9213 5.82162 13.9388 5.78234C13.9784 5.69226 13.9992 5.59637 14 5.49951C13.9992 5.40265 13.9784 5.30676 13.9388 5.21668C13.9388 5.1774 13.895 5.15383 13.8775 5.11454C13.8545 5.07358 13.8282 5.03419 13.7988 4.9967L9.42375 0.282833C9.34148 0.194148 9.23846 0.122827 9.12201 0.0739433C9.00556 0.0250597 8.87855 -0.00018594 8.75 1.50086e-06C8.54555 -0.000357156 8.34742 0.0635749 8.19 0.1807C8.1014 0.246654 8.02816 0.327654 7.97448 0.419061C7.92079 0.510469 7.88772 0.610488 7.87716 0.713389C7.86659 0.81629 7.87874 0.920052 7.9129 1.01873C7.94706 1.11741 8.00257 1.20907 8.07625 1.28846L11.2525 4.71387H0.875C0.642936 4.71387 0.420376 4.79664 0.256282 4.94397C0.0921874 5.09131 0 5.29114 0 5.49951C0 5.70788 0.0921874 5.90771 0.256282 6.05504C0.420376 6.20238 0.642936 6.28515 0.875 6.28515Z" fill="#ED1C24"/>
  </symbol>
  <symbol id="bell" viewBox="0 0 20 25">
    <path d="M1 15.8178H1.75H1ZM4.14282 19.4958L4.24584 18.7529H4.24584L4.14282 19.4958ZM15.857 19.4958L15.96 20.2387L15.857 19.4958ZM3.75002 7.99994C3.75002 4.54819 6.54822 1.75 9.99997 1.75V0.25C5.71979 0.25 2.25002 3.71976 2.25002 7.99994H3.75002ZM3.75002 10.6741V7.99994H2.25002V10.6741H3.75002ZM1.75 15.8178C1.75 15.1664 1.95219 14.5645 2.29724 14.0685L1.0659 13.2119C0.5516 13.9511 0.25 14.8504 0.25 15.8178H1.75ZM4.24584 18.7529C2.80806 18.5535 1.75 17.3043 1.75 15.8178H0.25C0.25 18.0179 1.82588 19.9317 4.03981 20.2387L4.24584 18.7529ZM9.99993 19.2501C8.27601 19.2501 6.05292 19.0035 4.24584 18.7529L4.03981 20.2387C5.85908 20.491 8.16728 20.7501 9.99993 20.7501V19.2501ZM15.754 18.7529C13.9469 19.0035 11.7239 19.2501 9.99993 19.2501V20.7501C11.8326 20.7501 14.1408 20.491 15.96 20.2387L15.754 18.7529ZM18.2499 15.8178C18.2499 17.3043 17.1918 18.5535 15.754 18.7529L15.96 20.2387C18.174 19.9317 19.7499 18.0179 19.7499 15.8178H18.2499ZM17.7026 14.0685C18.0477 14.5645 18.2499 15.1664 18.2499 15.8178H19.7499C19.7499 14.8504 19.4483 13.9512 18.934 13.2119L17.7026 14.0685ZM16.2499 7.99994V10.6742H17.7499V7.99994H16.2499ZM9.99997 1.75C13.4517 1.75 16.2499 4.5482 16.2499 7.99994H17.7499C17.7499 3.71977 14.2801 0.25 9.99997 0.25V1.75ZM18.934 13.2119C18.2655 12.2509 17.7499 11.4929 17.7499 10.6742H16.2499C16.2499 12.0562 17.1144 13.2229 17.7026 14.0685L18.934 13.2119ZM2.25002 10.6741C2.25002 11.4928 1.73443 12.2509 1.0659 13.2119L2.29724 14.0685C2.88549 13.2229 3.75002 12.0562 3.75002 10.6741H2.25002Z" fill="#ED1C24"/>
    <path d="M12.5 22.6589C11.9625 23.4673 11.0435 24 10 24C8.95655 24 8.0375 23.4673 7.50005 22.6589" stroke="#ED1C24" stroke-width="1.5" stroke-linecap="round"/>
  </symbol>
  <symbol id="icon-edit" viewBox="0 0 15 14" fill="none">
    <path fill-rule="evenodd" clip-rule="evenodd" d="M7.86375 0.806498C8.93688 -0.268256 10.6774 -0.268917 11.7514 0.805025L13.0494 2.10305C14.1142 3.16783 14.1252 4.89159 13.0742 5.96996L6.42871 12.7883C5.72318 13.5121 4.75552 13.9203 3.74509 13.9203L2.24909 13.9202C0.969847 13.9202 -0.0517702 12.8538 0.00203172 11.5747L0.0677231 10.0129C0.107221 9.07391 0.497501 8.18391 1.16134 7.51907L7.86375 0.806498ZM10.6915 1.86649C10.2034 1.37833 9.4122 1.37863 8.92441 1.86716L8.07274 2.72013L11.1489 5.79628L12.0008 4.9222C12.4786 4.43203 12.4735 3.6485 11.9895 3.16451L10.6915 1.86649ZM2.222 8.57973L7.01288 3.78159L10.1018 6.87055L5.35533 11.7405C4.93201 12.1748 4.35141 12.4197 3.74515 12.4197L2.24916 12.4196C1.82274 12.4196 1.4822 12.0642 1.50014 11.6378L1.56583 10.0761C1.58953 9.51263 1.8237 8.97864 2.222 8.57973ZM13.7248 13.8635C14.1388 13.8635 14.4745 13.5276 14.4745 13.1132C14.4745 12.6988 14.1388 12.3629 13.7248 12.3629H8.98111C8.56705 12.3629 8.23139 12.6988 8.23139 13.1132C8.23139 13.5276 8.56705 13.8635 8.98111 13.8635H13.7248Z" fill="#ED1C24"/>
  </symbol>
  <symbol id="icon-profile" viewBox="0 0 48 48" fill="none">
    <circle cx="24" cy="24" r="24" fill="#F9F9F9"/>
    <circle r="4.91429" transform="matrix(-1 0 0 1 23.5999 17.9143)" stroke="#ED1C24" stroke-width="1.5"/>
    <path d="M15 30.1197C15 29.0627 15.6645 28.1198 16.6599 27.7643V27.7643C21.1478 26.1615 26.0522 26.1615 30.5401 27.7643V27.7643C31.5355 28.1198 32.2 29.0627 32.2 30.1197V32.194C32.2 33.4111 31.122 34.346 29.9172 34.1739L27.4184 33.8169C24.8856 33.4551 22.3144 33.4551 19.7816 33.8169L17.2828 34.1739C16.078 34.346 15 33.4111 15 32.194V30.1197Z" stroke="#ED1C24" stroke-width="1.5"/>
  </symbol>
  <symbol id="icon-info" viewBox="0 0 22 22" fill="none">
    <rect x="1" y="1" width="20" height="20" rx="10" stroke="#ED1C24" stroke-width="1.5"/>
    <path d="M11.5 16L11.5 10" stroke="#ED1C24" stroke-width="1.5" stroke-linecap="round" stroke-linejoin="round"/>
    <path d="M9.5 10L11.5 10" stroke="#ED1C24" stroke-width="1.5" stroke-linecap="round" stroke-linejoin="round"/>
    <path d="M11.5 7L11.5 6" stroke="#ED1C24" stroke-width="1.5" stroke-linecap="round" stroke-linejoin="round"/>
  </symbol>
</svg>
