<svg width="79" height="79" viewBox="0 0 79 79" fill="none" xmlns="http://www.w3.org/2000/svg">
<circle cx="39.5" cy="39.5" r="39.5" fill="#F9F9F9"/>
<path d="M23.3489 29.3655V47.5576C23.3489 47.9613 23.5916 48.3254 23.9643 48.4806L39.5135 54.9595M23.3489 29.3655L38.7443 22.9508C39.2366 22.7456 39.7904 22.7456 40.2827 22.9508L47.5958 25.9979M23.3489 29.3655L31.4312 32.7331M39.5135 36.1008V54.9595M39.5135 36.1008L55.6781 29.3655M39.5135 36.1008L31.4312 32.7331M39.5135 54.9595L55.0627 48.4806C55.4354 48.3254 55.6781 47.9613 55.6781 47.5576V29.3655M55.6781 29.3655L47.5958 25.9979M31.4312 32.7331L47.5958 25.9979" stroke="#ED1C24" stroke-width="2" stroke-linejoin="round"/>
<path d="M8.568 23V1.56L9.592 2.648H3.288V0.599998H10.872V23H8.568Z" fill="#C4C4C4"/>
</svg>
