<svg width="79" height="79" viewBox="0 0 79 79" fill="none" xmlns="http://www.w3.org/2000/svg">
<circle cx="39.5" cy="39.5" r="39.5" fill="#F9F9F9"/>
<path d="M22.4508 31.2412C22.4508 30.1366 23.3462 29.2412 24.4508 29.2412H54.3767C55.4813 29.2412 56.3767 30.1366 56.3767 31.2412V36.4769C56.3767 37.3601 55.7974 38.1388 54.9514 38.3926L40.5631 42.709C39.8134 42.9339 39.0141 42.9339 38.2644 42.709L23.8761 38.3926C23.0301 38.1388 22.4508 37.3601 22.4508 36.4769V31.2412Z" stroke="#ED1C24" stroke-width="2"/>
<path d="M39.4138 37.9653L39.4138 35.0574" stroke="#ED1C24" stroke-width="2" stroke-linecap="round" stroke-linejoin="round"/>
<path d="M23.8645 37.9646L23.8645 49.9581C23.8645 52.1673 25.6554 53.9581 27.8645 53.9581H50.9632C53.1724 53.9581 54.9633 52.1673 54.9633 49.9582V37.9646" stroke="#ED1C24" stroke-width="2"/>
<path d="M45.068 29.241V25.4252C45.068 24.3206 44.1725 23.4252 43.068 23.4252H35.7593C34.6548 23.4252 33.7593 24.3206 33.7593 25.4252L33.7593 29.241" stroke="#ED1C24" stroke-width="2"/>
<path d="M8.352 23.192C6.73067 23.192 5.19467 22.936 3.744 22.424C2.31467 21.8907 1.16267 21.1867 0.288 20.312L1.408 18.488C2.13333 19.2347 3.104 19.8533 4.32 20.344C5.55733 20.8347 6.90133 21.08 8.352 21.08C10.208 21.08 11.6267 20.6747 12.608 19.864C13.6107 19.0533 14.112 17.9653 14.112 16.6C14.112 15.2347 13.6213 14.1467 12.64 13.336C11.68 12.5253 10.1547 12.12 8.064 12.12H6.464V10.424L13.376 1.752L13.696 2.648H1.216V0.599998H15.616V2.232L8.704 10.904L7.584 10.168H8.448C11.136 10.168 13.1413 10.7653 14.464 11.96C15.808 13.1547 16.48 14.6907 16.48 16.568C16.48 17.8267 16.1813 18.9573 15.584 19.96C14.9867 20.9627 14.08 21.752 12.864 22.328C11.6693 22.904 10.1653 23.192 8.352 23.192Z" fill="#C4C4C4"/>
</svg>
