<svg width="79" height="80" viewBox="0 0 79 80" fill="none" xmlns="http://www.w3.org/2000/svg">
<ellipse cx="39.5" cy="40" rx="39.5" ry="40" fill="#F9F9F9"/>
<rect x="22.4508" y="26.1709" width="33.6763" height="26.941" rx="5" stroke="#ED1C24" stroke-width="2"/>
<path d="M29.1861 34.59L38.089 41.2671C38.8001 41.8005 39.7779 41.8005 40.489 41.2671L49.3919 34.59" stroke="#ED1C24" stroke-width="2" stroke-linecap="round" stroke-linejoin="round"/>
<path d="M1.248 24V22.368L10.56 13.248C11.4133 12.416 12.0533 11.6907 12.48 11.072C12.9067 10.432 13.1947 9.83467 13.344 9.28C13.4933 8.72533 13.568 8.20267 13.568 7.712C13.568 6.41067 13.12 5.38667 12.224 4.64C11.3493 3.89333 10.048 3.52 8.32 3.52C6.99733 3.52 5.824 3.72267 4.8 4.128C3.79733 4.53333 2.93333 5.16267 2.208 6.016L0.576 4.608C1.45067 3.584 2.57067 2.79467 3.936 2.24C5.30133 1.68533 6.82667 1.408 8.512 1.408C10.0267 1.408 11.3387 1.65333 12.448 2.144C13.5573 2.61333 14.4107 3.30667 15.008 4.224C15.6267 5.14133 15.936 6.21867 15.936 7.456C15.936 8.18133 15.8293 8.896 15.616 9.6C15.424 10.304 15.0613 11.0507 14.528 11.84C14.016 12.608 13.2587 13.4827 12.256 14.464L3.712 22.848L3.072 21.952H16.96V24H1.248Z" fill="#C4C4C4"/>
</svg>
